<svg height="90" viewBox="0 0 90.083 90" width="90.083" xmlns="http://www.w3.org/2000/svg" xmlns:xlink="http://www.w3.org/1999/xlink"><clipPath id="a"><path d="m0 0h90.083v90h-90.083z"/></clipPath><g clip-path="url(#a)"><path d="m7.424 52.4a2.926 2.926 0 0 1 2.942 2.913 2.833 2.833 0 0 1 -2.942 2.913 2.927 2.927 0 0 1 -2.942-2.913 2.834 2.834 0 0 1 2.942-2.913" fill="#b8d0f3" transform="translate(2.39 27.94)"/><path d="m7.141 14.9a3.833 3.833 0 1 1 0 7.666 3.833 3.833 0 1 1 0-7.666" fill="#b8d0f3" transform="translate(1.744 7.945)"/><path d="m58.128 33.807v15.637l-14.4 8.894-14.4-8.279v-16.252l14.4-7.206z" fill="#b8d0f3" transform="translate(15.638 14.184)"/><path d="m39.289 33.807v15.637l-14.247 8.894-14.4-8.279v-16.252l14.4-7.206z" fill="#fff" transform="translate(5.675 14.184)"/><path d="m48.682 18.84v16.56l-14.4 7.206-14.248-7.206v-16.56l14.247-8.74 14.4 8.126z" fill="#fff" transform="translate(10.683 5.386)"/><g fill="#4e8ae1"><path d="m41.358 47.98a2.141 2.141 0 0 1 -1.7-.921 1.783 1.783 0 0 1 .619-2.606l4.8-2.912v-3.989l-3.717-1.838-3.717 1.838v5.214a2.038 2.038 0 0 1 -2.013 1.992 1.908 1.908 0 0 1 -1.858-1.992v-6.44a1.882 1.882 0 0 1 1.084-1.685l5.73-2.76a1.683 1.683 0 0 1 1.7 0l5.731 2.76a1.885 1.885 0 0 1 1.083 1.685v6.133a2.113 2.113 0 0 1 -.931 1.688l-5.728 3.526a2.272 2.272 0 0 1 -1.084.307" transform="translate(18.007 16.877)"/><path d="m31.965 31.671a2.235 2.235 0 0 1 -.929-.305l-5.73-3.221a1.755 1.755 0 0 1 -.929-1.685v-6.442a1.883 1.883 0 0 1 1.084-1.685l5.73-2.761a1.919 1.919 0 0 1 2.633.921 1.886 1.886 0 0 1 -.931 2.606l-4.644 2.3v3.985l3.717 2.148 3.717-2.3v-5.214a2.013 2.013 0 0 1 4.026 0v6.133a2.108 2.108 0 0 1 -.931 1.687l-5.728 3.528a2.272 2.272 0 0 1 -1.084.305" transform="translate(12.998 8.193)"/><path d="m25.689 60.782a2.235 2.235 0 0 1 -.929-.305l-14.4-8.128a1.76 1.76 0 0 1 -.928-1.687v-16.25a1.885 1.885 0 0 1 1.086-1.688l14.4-7.051a1.92 1.92 0 0 1 2.634.918 1.884 1.884 0 0 1 -.931 2.606l-13.321 6.594v14.109l12.388 7.053 13.472-8.13a1.822 1.822 0 0 1 2.633.615 1.786 1.786 0 0 1 -.618 2.606l-14.558 8.433a2.235 2.235 0 0 1 -.928.305" transform="translate(5.029 13.579)"/><path d="m22.673 47.98a2.238 2.238 0 0 1 -.929-.307l-5.728-3.221a1.751 1.751 0 0 1 -.929-1.685v-6.441a1.881 1.881 0 0 1 1.082-1.685l5.728-2.76a1.686 1.686 0 0 1 1.7 0l5.73 2.76a2.014 2.014 0 0 1 .929 2.606 2.054 2.054 0 0 1 -2.633.92l-4.8-2.3-3.717 1.84v4.14l3.717 2.145 4.644-2.912a1.825 1.825 0 0 1 2.634.612 1.788 1.788 0 0 1 -.621 2.608l-5.88 3.373a2.239 2.239 0 0 1 -.928.307" transform="translate(8.045 16.877)"/><path d="m1.915 51.8a1.907 1.907 0 0 1 -1.7-1.072 1.883 1.883 0 0 1 .929-2.606l14.4-7.054a1.917 1.917 0 0 1 2.631.921 1.885 1.885 0 0 1 -.929 2.606l-14.557 7.056a6.766 6.766 0 0 1 -.774.153" transform="translate(.001 21.79)"/><path d="m39.42 64.385a2.041 2.041 0 0 1 -2.02-1.993v-13.8a2.013 2.013 0 0 1 4.026 0v13.8a1.941 1.941 0 0 1 -2.012 1.993" transform="translate(19.945 24.848)"/><path d="m20.735 65.311a2.04 2.04 0 0 1 -2.013-1.993v-15.025a2.012 2.012 0 0 1 4.025 0v15.025a2.285 2.285 0 0 1 -2.012 1.993" transform="translate(9.983 24.688)"/><path d="m63.221 51.8a1.976 1.976 0 0 1 -.928-.153l-14.4-7.051a2.016 2.016 0 0 1 -.929-2.606 2.053 2.053 0 0 1 2.633-.921l14.4 7.054a2.014 2.014 0 0 1 .929 2.606 1.907 1.907 0 0 1 -1.7 1.072" transform="translate(24.944 21.799)"/><path d="m39.384 20.8a1.907 1.907 0 0 1 -1.7-1.072 1.883 1.883 0 0 1 .929-2.606l14.4-7.054a1.919 1.919 0 0 1 2.633.921 1.885 1.885 0 0 1 -.929 2.606l-14.4 7.051a1.976 1.976 0 0 1 -.928.153" transform="translate(19.981 5.26)"/><path d="m48.779 36.573a1.863 1.863 0 0 1 -.929-3.526l14.4-7.973a2 2 0 0 1 2.633.767 1.954 1.954 0 0 1 -.774 2.606l-14.4 7.973a1.979 1.979 0 0 1 -.928.153" transform="translate(24.988 13.257)"/><path d="m16.318 37.179a2.235 2.235 0 0 1 -.929-.305l-14.401-8.128a1.953 1.953 0 0 1 -.774-2.6 1.993 1.993 0 0 1 2.633-.767l14.4 8.126a1.97 1.97 0 0 1 -.928 3.678" transform="translate(0 13.417)"/><path d="m25.753 20.8a1.982 1.982 0 0 1 -.929-.153l-14.4-7.051a2.016 2.016 0 0 1 -.928-2.606 2.053 2.053 0 0 1 2.633-.921l14.4 7.054a2.014 2.014 0 0 1 .928 2.606 1.807 1.807 0 0 1 -1.7 1.072" transform="translate(4.965 5.269)"/><path d="m44.374 60.88a2.235 2.235 0 0 1 -.929-.305l-14.4-8.128a1.759 1.759 0 0 1 -.929-1.687v-16.25a2.013 2.013 0 0 1 4.026 0v15.177l12.388 7.054 12.54-7.665v-13.494l-13.316-6.593a2.013 2.013 0 0 1 -.929-2.606 2.055 2.055 0 0 1 2.633-.92l14.4 7.053a1.888 1.888 0 0 1 1.084 1.684v15.794a2.111 2.111 0 0 1 -.929 1.687l-14.4 8.739a2.072 2.072 0 0 1 -1.239.46" transform="translate(14.991 13.481)"/><path d="m35.034 45.11a2 2 0 0 1 -.929-.152l-14.405-7.052a1.887 1.887 0 0 1 -1.084-1.688v-16.711a2.111 2.111 0 0 1 .929-1.688l14.405-8.739a2.328 2.328 0 0 1 2.013 0l14.4 8.128a1.755 1.755 0 0 1 .931 1.687v17.171a1.885 1.885 0 0 1 -1.084 1.685l-14.4 7.054c-.155.305-.465.305-.774.305m-12.389-10.271 12.387 6.133 12.387-6.133v-14.872l-12.387-7.054-12.543 7.666z" transform="translate(9.929 4.719)"/><path d="m30.026 17.479a2.04 2.04 0 0 1 -2.013-1.993v-13.493a2.012 2.012 0 0 1 4.025 0v13.493a2.038 2.038 0 0 1 -2.012 1.993" transform="translate(14.937)"/><path d="m7.841 25.252a5.827 5.827 0 1 1 5.884-5.826 6.062 6.062 0 0 1 -5.884 5.826m0-7.666a1.994 1.994 0 1 0 2.012 1.994 2.143 2.143 0 0 0 -2.012-1.993" transform="translate(1.044 7.251)"/><path d="m53.518 12.006a4.8 4.8 0 0 1 -4.8-4.753 4.8 4.8 0 0 1 9.6 0 4.8 4.8 0 0 1 -4.8 4.753m0-5.826a.994.994 0 0 0 -.929.92.928.928 0 0 0 1.857 0 .993.993 0 0 0 -.928-.92" transform="translate(25.977 1.333)"/><path d="m8.071 60.706a4.753 4.753 0 1 1 4.8-4.751 4.8 4.8 0 0 1 -4.8 4.751m0-5.673a.92.92 0 1 0 0 1.84 1 1 0 0 0 .929-.918.89.89 0 0 0 -.931-.921" transform="translate(1.744 27.301)"/></g></g></svg>