<svg id="Grupo_1205227" data-name="Grupo 1205227" xmlns="http://www.w3.org/2000/svg" xmlns:xlink="http://www.w3.org/1999/xlink" width="80.134" height="80" viewBox="0 0 80.134 80">
  <defs>
    <clipPath id="clip-path">
      <rect id="Rectángulo_456072" data-name="Rectángulo 456072" width="80.134" height="80" fill="none"/>
    </clipPath>
  </defs>
  <path id="Trazado_1256807" data-name="Trazado 1256807" d="M48.171,21,44,25.285,41.86,23.14,31.382,12.662,29.239,10.52l4.168-4.168,5.239,5.239,4.286,4.167Z" transform="translate(10.828 3)" fill="#fff"/>
  <g id="Grupo_1205226" data-name="Grupo 1205226" transform="translate(0 0)">
    <g id="Grupo_1205225" data-name="Grupo 1205225" clip-path="url(#clip-path)">
      <path id="Trazado_1256808" data-name="Trazado 1256808" d="M41.765,27.557,29.631,39.691A8.324,8.324,0,0,1,20.7,41.557l-5.2,5.2a3.3,3.3,0,0,1-4.667-4.667l5.2-5.2A8.326,8.326,0,0,1,17.9,27.957l4.667-4.666.934.934s4,3.866,6.668,3.333,9.866-2.4,11.6,0" transform="translate(3.17 7.51)" fill="#fbfbfc"/>
      <rect id="Rectángulo_456067" data-name="Rectángulo 456067" width="3.334" height="3.333" transform="translate(44.935 60)" fill="#fdc9a6"/>
      <rect id="Rectángulo_456068" data-name="Rectángulo 456068" width="3.334" height="3.333" transform="translate(38.268 60)" fill="#fdc9a6"/>
      <rect id="Rectángulo_456069" data-name="Rectángulo 456069" width="3.334" height="3.333" transform="translate(31.602 60)" fill="#fdc9a6"/>
      <rect id="Rectángulo_456070" data-name="Rectángulo 456070" width="3.334" height="3.333" transform="translate(24.934 60)" fill="#fdc9a6"/>
      <rect id="Rectángulo_456071" data-name="Rectángulo 456071" width="3.333" height="3.333" transform="translate(12.557 26.714) rotate(-45)" fill="#fdc9a6"/>
      <path id="Trazado_1256809" data-name="Trazado 1256809" d="M13.536,53.609a5.405,5.405,0,0,1-3.6-1.467,4.921,4.921,0,0,1-1.465-3.6,5.145,5.145,0,0,1,1.465-3.6l4.533-4.535A9.828,9.828,0,0,1,17,30.809l20-20a1.69,1.69,0,0,1,2.4,0L51.137,22.542a1.691,1.691,0,0,1,0,2.4l-20,20a9.994,9.994,0,0,1-7.067,2.933,7.752,7.752,0,0,1-2.534-.4L17,52.009a4.492,4.492,0,0,1-3.466,1.6m24.8-39.2L19.4,33.343a6.8,6.8,0,0,0-1.467,7.2,1.411,1.411,0,0,1-.4,1.732l-5.2,5.2a1.688,1.688,0,0,0-.533,1.2,1.621,1.621,0,0,0,.533,1.2,1.687,1.687,0,0,0,1.2.534,1.626,1.626,0,0,0,1.2-.534l5.2-5.2a1.492,1.492,0,0,1,1.732-.4,7.548,7.548,0,0,0,2.4.4,6.25,6.25,0,0,0,4.666-2l18.8-18.8Z" transform="translate(2.731 3.324)" fill="#fdc9a6"/>
      <path id="Trazado_1256810" data-name="Trazado 1256810" d="M46.187,29.567a1.639,1.639,0,0,1-1.2-.533l-16.533-16.4a1.689,1.689,0,0,1,0-2.4l4.668-4.667a1.689,1.689,0,0,1,2.4,0L52.054,22.1a2,2,0,0,1,.533,1.2,1.624,1.624,0,0,1-.533,1.2l-4.667,4.667a2.157,2.157,0,0,1-1.2.4M32.054,11.433,46.187,25.567l2.4-2.4L34.321,9.033Z" transform="translate(9.014 1.634)" fill="#fdc9a6"/>
      <path id="Trazado_1256811" data-name="Trazado 1256811" d="M42.853,20a1.627,1.627,0,0,1-1.2-.533,1.691,1.691,0,0,1,0-2.4l2.933-2.933a1.686,1.686,0,0,1,1.2-.533c2.8,0,4.667-.668,5.866-1.867a5.15,5.15,0,0,0,1.468-3.6,5.4,5.4,0,0,0-1.468-3.6,5.156,5.156,0,0,0-3.6-1.467,5.405,5.405,0,0,0-3.6,1.467c-1.2,1.2-1.866,3.067-1.866,5.866a1.629,1.629,0,0,1-.534,1.2L39.12,14.533a1.7,1.7,0,1,1-2.4-2.4L39.52,10a11.211,11.211,0,0,1,2.8-7.6A8.055,8.055,0,0,1,48.187,0a8.626,8.626,0,0,1,5.866,2.4,8.054,8.054,0,0,1,2.4,5.868,8.618,8.618,0,0,1-2.4,5.866c-1.734,1.734-4.133,2.666-7.6,2.8l-2.534,2.533A1.214,1.214,0,0,1,42.853,20" transform="translate(11.68 0)" fill="#fdc9a6"/>
      <path id="Trazado_1256812" data-name="Trazado 1256812" d="M26.611,29.377c-3.2,0-6.667-3.2-7.333-3.867a1.7,1.7,0,0,1,2.4-2.4c1.467,1.334,4,3.067,5.2,2.933a4.134,4.134,0,0,0,1.067-.267c5.2-1.066,10.4-1.866,12.266.934a1.627,1.627,0,1,1-2.666,1.867s-.534-.534-3.067-.4a34.309,34.309,0,0,0-5.734.934c-.4.132-.8.132-1.2.267Z" transform="translate(6.055 7.291)" fill="#fdc9a6"/>
      <path id="Trazado_1256813" data-name="Trazado 1256813" d="M72.934,63.744h-66A6.9,6.9,0,0,1,0,57.211V52.145a1.766,1.766,0,0,1,1.734-1.734H78.4a1.765,1.765,0,0,1,1.734,1.734V56.81a7.491,7.491,0,0,1-7.2,6.934M3.2,53.745v3.333a3.746,3.746,0,0,0,3.6,3.468h66a3.727,3.727,0,0,0,3.733-3.735V53.745Z" transform="translate(0 16.256)" fill="#fdc9a6"/>
      <path id="Trazado_1256814" data-name="Trazado 1256814" d="M51.274,54.426a8.963,8.963,0,0,1-8-12.934l6.4-12.934a1.619,1.619,0,0,1,2.933,0l6.4,12.934a9.1,9.1,0,0,1-.4,8.666,8.3,8.3,0,0,1-7.333,4.268m0-21.334-4.933,9.867a5.433,5.433,0,0,0,.266,5.334,5.724,5.724,0,0,0,4.667,2.667,5.111,5.111,0,0,0,4.666-2.667,5.43,5.43,0,0,0,.267-5.334Z" transform="translate(13.661 8.908)" fill="#fdc9a6"/>
      <path id="Trazado_1256815" data-name="Trazado 1256815" d="M15.438,22.122a1.63,1.63,0,0,1-1.2-.533,1.691,1.691,0,0,1,0-2.4L29.3,4.256a1.7,1.7,0,0,1,2.4,2.4L16.636,21.589a1.627,1.627,0,0,1-1.2.533" transform="translate(4.43 1.211)" fill="#fdc9a6"/>
      <path id="Trazado_1256816" data-name="Trazado 1256816" d="M49.748,45.279h-.267a3.4,3.4,0,0,1-2.8-2.267l3.067-1.334.134.135c.132-.135.132-.267.4-.4a1.627,1.627,0,1,1,2.666,1.866c-1.066,1.2-2,2-3.2,2" transform="translate(15.053 13.121)" fill="#fdc9a6"/>
      <path id="Trazado_1256817" data-name="Trazado 1256817" d="M54.066,21.425a5.066,5.066,0,1,1,5.066-5.066,5.064,5.064,0,0,1-5.066,5.066m0-6.667A1.734,1.734,0,1,0,55.8,16.493a1.682,1.682,0,0,0-1.734-1.735" transform="translate(15.801 3.641)" fill="#fdc9a6"/>
      <path id="Trazado_1256818" data-name="Trazado 1256818" d="M7.486,12.553a5.066,5.066,0,1,1,5.066-5.066,5.151,5.151,0,0,1-5.066,5.066m0-6.667A1.733,1.733,0,1,0,9.22,7.62,1.98,1.98,0,0,0,7.486,5.886" transform="translate(0.78 0.78)" fill="#fdc9a6"/>
    </g>
  </g>
</svg>
