<svg xmlns="http://www.w3.org/2000/svg" xmlns:xlink="http://www.w3.org/1999/xlink" width="89.394" height="90" viewBox="0 0 89.394 90">
  <defs>
    <clipPath id="clip-path">
      <rect id="Rect치ngulo_455615" data-name="Rect치ngulo 455615" width="89.394" height="90" fill="none"/>
    </clipPath>
  </defs>
  <g id="Grupo_1204200" data-name="Grupo 1204200" transform="translate(0 0)">
    <g id="Grupo_1204199" data-name="Grupo 1204199" transform="translate(0 0)" clip-path="url(#clip-path)">
      <path id="Rect치ngulo_455614" data-name="Rect치ngulo 455614" d="M3.035,0H53.879a3.034,3.034,0,0,1,3.034,3.034V73.61a3.034,3.034,0,0,1-3.034,3.034H3.034A3.034,3.034,0,0,1,0,73.61V3.035A3.035,3.035,0,0,1,3.035,0Z" transform="translate(15.331 11.534)" fill="#b8d0f3"/>
      <path id="Trazado_1255333" data-name="Trazado 1255333" d="M56.6,12.746a4.705,4.705,0,1,1-4.707,4.705A4.706,4.706,0,0,1,56.6,12.746" transform="translate(25.964 6.377)" fill="#fff"/>
      <path id="Trazado_1255334" data-name="Trazado 1255334" d="M5.11,44.308A3.794,3.794,0,1,1,1.316,48.1,3.793,3.793,0,0,1,5.11,44.308" transform="translate(0.658 22.168)" fill="#fff"/>
      <path id="Trazado_1255335" data-name="Trazado 1255335" d="M49.069,10.877a7.712,7.712,0,0,1,.3,1.973A5.765,5.765,0,0,1,43.6,18.617H24.785a5.865,5.865,0,0,1-4.1-1.67,5.6,5.6,0,0,1-1.668-4.1,8.821,8.821,0,0,1,.3-1.973,5.562,5.562,0,0,1,5.311-3.794h3.794a5.768,5.768,0,0,1,11.536,0h3.793a5.863,5.863,0,0,1,4.1,1.67,7.078,7.078,0,0,1,1.215,2.124" transform="translate(9.516 0.657)" fill="#fff"/>
      <path id="Trazado_1255336" data-name="Trazado 1255336" d="M22.56,41.476v4.25L18.917,47.85l-3.641-2.124v-4.25l3.641-2.124Z" transform="translate(7.643 19.688)" fill="#fff"/>
      <path id="Trazado_1255337" data-name="Trazado 1255337" d="M22.56,30.652V34.9l-3.643,2.126L15.276,34.9V30.652l3.641-2.124Z" transform="translate(7.643 14.272)" fill="#fff"/>
      <path id="Trazado_1255338" data-name="Trazado 1255338" d="M22.56,19.929v4.25L18.917,26.3l-3.641-2.124v-4.25L18.917,17.8Z" transform="translate(7.643 8.907)" fill="#fff"/>
      <path id="Trazado_1255339" data-name="Trazado 1255339" d="M49.372,30.753a2.656,2.656,0,0,1,1.062,2.124l-1.062,6.981a7.593,7.593,0,0,0-1.214,1.821,6.719,6.719,0,0,0-1.215-1.668l-1.214-7.134A2.193,2.193,0,0,1,48,30.448a4.446,4.446,0,0,1,1.367.3" transform="translate(22.872 15.233)" fill="#fff"/>
      <path id="Trazado_1255340" data-name="Trazado 1255340" d="M60.54,34.8c16.847,0,5.616,30.355-3.643,30.355a15.368,15.368,0,0,1-2.581-.456h-.3a10.175,10.175,0,0,0-3.035,0,9.261,9.261,0,0,1-2.581.456c-9.258,0-20.337-30.355-3.643-30.355a9.2,9.2,0,0,1,6.679,3.035,16.15,16.15,0,0,1,1.214,1.67,12.677,12.677,0,0,1,1.214-1.821A9.308,9.308,0,0,1,60.54,34.8" transform="translate(18.077 17.41)" fill="#fff"/>
      <path id="Trazado_1255341" data-name="Trazado 1255341" d="M56.751,25.147a1.908,1.908,0,0,1,.153.911,1.871,1.871,0,0,1-1.062,1.67,1.934,1.934,0,0,1-.912.152,1.864,1.864,0,0,1-1.668-1.064,1.905,1.905,0,0,1-.153-.909,1.867,1.867,0,0,1,1.062-1.67,1.952,1.952,0,0,1,2.581.911" transform="translate(26.571 12.036)" fill="#4e8ae1"/>
      <path id="Trazado_1255342" data-name="Trazado 1255342" d="M55.537,3.71a1.911,1.911,0,0,1,.153.911,1.869,1.869,0,0,1-1.062,1.67,1.934,1.934,0,0,1-.912.152A1.865,1.865,0,0,1,52.047,5.38a1.914,1.914,0,0,1-.153-.911,1.91,1.91,0,0,1,3.643-.759" transform="translate(25.964 1.298)" fill="#4e8ae1"/>
      <path id="Trazado_1255343" data-name="Trazado 1255343" d="M10.016,4.915a1.928,1.928,0,0,1,.152.911A1.865,1.865,0,0,1,9.105,7.5a1.928,1.928,0,0,1-.911.152A1.863,1.863,0,0,1,6.526,6.585a1.911,1.911,0,0,1-.153-.911A1.867,1.867,0,0,1,7.435,4a2,2,0,0,1,2.581.911" transform="translate(3.189 1.914)" fill="#4e8ae1"/>
      <path id="Trazado_1255344" data-name="Trazado 1255344" d="M7.487,37.774a1.931,1.931,0,0,1,.152.911,1.865,1.865,0,0,1-1.062,1.67,1.928,1.928,0,0,1-.911.152A1.865,1.865,0,0,1,4,39.444a1.138,1.138,0,0,1-.152-.759,1.863,1.863,0,0,1,1.062-1.668,1.818,1.818,0,0,1,2.581.758" transform="translate(1.923 18.381)" fill="#4e8ae1"/>
      <path id="Trazado_1255345" data-name="Trazado 1255345" d="M3.643,21.413a1.914,1.914,0,0,1,.153.911,1.868,1.868,0,0,1-1.062,1.67,1.937,1.937,0,0,1-.912.152A1.863,1.863,0,0,1,.153,23.083,1.911,1.911,0,0,1,0,22.172,1.869,1.869,0,0,1,1.062,20.5a1.835,1.835,0,0,1,2.581.911" transform="translate(0 10.155)" fill="#4e8ae1"/>
      <path id="Trazado_1255346" data-name="Trazado 1255346" d="M63.236,86.811H15.428A6.576,6.576,0,0,1,8.9,80.285V12.9a6.575,6.575,0,0,1,6.526-6.526h9.105a1.973,1.973,0,1,1,0,3.946H15.428A2.72,2.72,0,0,0,12.7,13.051V80.588a2.72,2.72,0,0,0,2.732,2.732H63.236a2.72,2.72,0,0,0,2.732-2.732V79.071a1.973,1.973,0,0,1,3.946,0v1.517a6.883,6.883,0,0,1-6.678,6.223" transform="translate(4.454 3.188)" fill="#4e8ae1"/>
      <path id="Trazado_1255347" data-name="Trazado 1255347" d="M53.415,44.821A1.986,1.986,0,0,1,51.442,43V12.95a2.721,2.721,0,0,0-2.734-2.732H39.6a1.973,1.973,0,0,1,0-3.946h9.105A6.575,6.575,0,0,1,55.237,12.8V42.848a1.987,1.987,0,0,1-1.821,1.973" transform="translate(18.828 3.138)" fill="#4e8ae1"/>
      <path id="Trazado_1255348" data-name="Trazado 1255348" d="M47.4,42.539a1.809,1.809,0,0,1-1.821-1.668l-1.064-7.134v-.152A4.105,4.105,0,0,1,45.582,30.4a4.046,4.046,0,0,1,3.035-1.367,4.583,4.583,0,0,1,2.429.759,4.241,4.241,0,0,1,1.821,3.794v.152l-1.062,6.981a1.784,1.784,0,0,1-2.126,1.518,2.16,2.16,0,0,1-.911-.3,1.31,1.31,0,0,1-.911.455c-.3.152-.3.152-.455.152m.759-9.105.455,2.732.455-2.732a.529.529,0,0,0-.152-.3h-.3c-.152,0-.3,0-.3.152a.147.147,0,0,0-.15.152" transform="translate(22.259 14.525)" fill="#4e8ae1"/>
      <path id="Trazado_1255349" data-name="Trazado 1255349" d="M57.666,67.734a10.309,10.309,0,0,1-3.188-.608h-.152a5.021,5.021,0,0,0-2.124,0,16.221,16.221,0,0,1-3.188.608c-3.338,0-6.981-2.884-9.865-8.045A31.417,31.417,0,0,1,34.9,45.119c0-3.34.759-6.072,2.428-8.043,1.215-1.67,3.8-3.491,8.2-3.491a11.019,11.019,0,0,1,7.892,3.338,10.769,10.769,0,0,1,7.893-3.338c4.4,0,6.981,1.973,8.2,3.491a13.019,13.019,0,0,1,2.428,8.043,29.739,29.739,0,0,1-4.249,14.57c-3.037,5.161-6.678,8.045-10.018,8.045m-4.25-4.553a7.4,7.4,0,0,1,1.821.152.56.56,0,0,1,.456.152c1.365.3,1.973.455,2.124.455,1.973,0,4.553-2.428,6.678-6.069a27.164,27.164,0,0,0,3.643-12.75A9.523,9.523,0,0,0,66.62,39.5a6.687,6.687,0,0,0-5.464-2.124A6.8,6.8,0,0,0,56,39.655a3.6,3.6,0,0,0-.911,1.365,1.842,1.842,0,0,1-3.338,0l-.912-1.365a7.023,7.023,0,0,0-5.311-2.428c-2.429,0-4.1.759-5.16,2.124a8.825,8.825,0,0,0-1.518,5.616,27.136,27.136,0,0,0,3.643,12.748c2.124,3.643,4.705,6.07,6.678,6.07a6.692,6.692,0,0,0,2.124-.455c.606,0,1.365-.152,2.124-.152" transform="translate(17.461 16.803)" fill="#4e8ae1"/>
      <path id="Trazado_1255350" data-name="Trazado 1255350" d="M19.525,28.808a2.166,2.166,0,0,1-.911-.3L14.972,26.38a1.746,1.746,0,0,1-.911-1.67V20.461a1.906,1.906,0,0,1,.911-1.67l3.643-2.124a2.244,2.244,0,0,1,1.973,0l3.643,2.124a1.742,1.742,0,0,1,.911,1.67V24.71a1.9,1.9,0,0,1-.911,1.67L20.587,28.5a1.64,1.64,0,0,1-1.062.3M17.7,23.648l1.821,1.062,1.821-1.062V21.675l-1.821-1.062L17.7,21.675Z" transform="translate(7.035 8.224)" fill="#4e8ae1"/>
      <path id="Trazado_1255351" data-name="Trazado 1255351" d="M41.884,21.649H24.734a1.973,1.973,0,0,1,0-3.946h17.15a2.009,2.009,0,0,1,1.973,1.973,2.251,2.251,0,0,1-1.973,1.973" transform="translate(11.388 8.857)" fill="#4e8ae1"/>
      <path id="Trazado_1255352" data-name="Trazado 1255352" d="M49.473,25.392H24.734a1.973,1.973,0,1,1,0-3.946H49.473a2.008,2.008,0,0,1,1.971,1.973,2.108,2.108,0,0,1-1.971,1.973" transform="translate(11.387 10.73)" fill="#4e8ae1"/>
      <path id="Trazado_1255353" data-name="Trazado 1255353" d="M19.525,39.63a2.167,2.167,0,0,1-.911-.3L14.972,37.2a1.745,1.745,0,0,1-.911-1.67V31.284a1.906,1.906,0,0,1,.911-1.67l3.643-2.124a2.254,2.254,0,0,1,1.973,0l3.643,2.124a1.742,1.742,0,0,1,.911,1.67v4.249a1.9,1.9,0,0,1-.911,1.67l-3.643,2.124a3.877,3.877,0,0,1-1.062.3M17.7,34.471l1.821,1.062,1.821-1.062V32.346l-1.821-.911L17.7,32.5Z" transform="translate(7.035 13.64)" fill="#4e8ae1"/>
      <path id="Trazado_1255354" data-name="Trazado 1255354" d="M41.884,32.372H24.734a1.973,1.973,0,1,1,0-3.946h17.15A2.009,2.009,0,0,1,43.857,30.4a2.11,2.11,0,0,1-1.973,1.973" transform="translate(11.388 14.222)" fill="#4e8ae1"/>
      <path id="Trazado_1255355" data-name="Trazado 1255355" d="M38.092,36.216H24.734a1.973,1.973,0,1,1,0-3.946H38.092a2.007,2.007,0,0,1,1.97,1.973,2.25,2.25,0,0,1-1.97,1.973" transform="translate(11.387 16.145)" fill="#4e8ae1"/>
      <path id="Trazado_1255356" data-name="Trazado 1255356" d="M19.525,50.355a2.167,2.167,0,0,1-.911-.3l-3.643-2.124a1.746,1.746,0,0,1-.911-1.67v-4.25a1.905,1.905,0,0,1,.911-1.668l3.643-2.124a2.244,2.244,0,0,1,1.973,0l3.643,2.124a1.742,1.742,0,0,1,.911,1.668v4.25a1.906,1.906,0,0,1-.911,1.67l-3.643,2.124a1.64,1.64,0,0,1-1.062.3M17.7,45.347l1.821,1.062,1.821-1.062V43.221L19.525,42.16,17.7,43.221Z" transform="translate(7.035 19.005)" fill="#4e8ae1"/>
      <path id="Trazado_1255357" data-name="Trazado 1255357" d="M41.884,43.2H24.734a1.973,1.973,0,1,1,0-3.946h17.15a2.009,2.009,0,0,1,1.973,1.973A2.121,2.121,0,0,1,41.884,43.2" transform="translate(11.388 19.637)" fill="#4e8ae1"/>
      <path id="Trazado_1255358" data-name="Trazado 1255358" d="M34.3,46.939H24.734a1.973,1.973,0,1,1,0-3.946H34.3a2.009,2.009,0,0,1,1.973,1.973A2.112,2.112,0,0,1,34.3,46.939" transform="translate(11.387 21.51)" fill="#4e8ae1"/>
      <path id="Trazado_1255359" data-name="Trazado 1255359" d="M5.769,54.527a5.767,5.767,0,1,1,5.767-5.767,5.766,5.766,0,0,1-5.767,5.767m0-7.589a1.973,1.973,0,1,0,0,3.946A2.006,2.006,0,0,0,7.74,48.913a1.912,1.912,0,0,0-1.971-1.974" transform="translate(0 21.51)" fill="#4e8ae1"/>
      <path id="Trazado_1255360" data-name="Trazado 1255360" d="M57.258,24.787a6.678,6.678,0,1,1,6.676-6.678,6.736,6.736,0,0,1-6.676,6.678m0-9.562a2.882,2.882,0,0,0-2.885,2.884,2.791,2.791,0,0,0,2.885,2.884,2.882,2.882,0,0,0,2.884-2.884,2.791,2.791,0,0,0-2.884-2.884" transform="translate(25.306 5.719)" fill="#4e8ae1"/>
      <path id="Trazado_1255361" data-name="Trazado 1255361" d="M44.364,20.945H25.393a7.121,7.121,0,0,1-5.313-2.277A8.025,8.025,0,0,1,17.8,13.356a7.729,7.729,0,0,1,.455-2.581,7.532,7.532,0,0,1,7.134-5.008h2.124A7.612,7.612,0,0,1,34.8,0a7.479,7.479,0,0,1,7.286,5.767h2.126a7.122,7.122,0,0,1,5.311,2.276,9.339,9.339,0,0,1,1.821,2.885,7.1,7.1,0,0,1,.456,2.579,7.354,7.354,0,0,1-7.437,7.437M25.393,9.562a3.934,3.934,0,0,0-3.643,2.581,3.345,3.345,0,0,0-.152,1.214,4.362,4.362,0,0,0,1.062,2.732,3.663,3.663,0,0,0,2.732,1.062H44.364a3.758,3.758,0,0,0,3.794-3.794,2.935,2.935,0,0,0-.153-1.214,2.72,2.72,0,0,0-.909-1.367,3.663,3.663,0,0,0-2.732-1.062H40.57A2.008,2.008,0,0,1,38.6,7.74a3.794,3.794,0,0,0-7.589,0,2.009,2.009,0,0,1-1.973,1.973H25.393Z" transform="translate(8.908 0)" fill="#4e8ae1"/>
    </g>
  </g>
</svg>
