<svg xmlns="http://www.w3.org/2000/svg" width="31.541" height="69" viewBox="0 0 31.541 69">
  <g id="Grupo_1205228" data-name="Grupo 1205228" transform="translate(31.541) rotate(90)">
    <g id="Grupo_78414" data-name="Grupo 78414" transform="translate(0 0)">
      <path id="Trazado_114078" data-name="Trazado 114078" d="M59.526,0c-2.714,0-4.054,2.388-5.13,4.309-1.09,1.943-1.829,3.133-3.218,3.133s-2.127-1.191-3.214-3.133C46.888,2.388,45.548,0,42.835,0s-4.054,2.388-5.13,4.309c-1.089,1.943-1.827,3.133-3.216,3.133s-2.125-1.191-3.214-3.133C30.2,2.388,28.86,0,26.147,0S22.094,2.39,21.02,4.31c-1.089,1.941-1.826,3.132-3.213,3.132S15.683,6.251,14.594,4.31C13.517,2.388,12.179,0,9.466,0S5.415,2.388,4.339,4.31C3.25,6.251,2.513,7.442,1.126,7.442A1.188,1.188,0,0,0,0,8.682a1.187,1.187,0,0,0,1.126,1.24c2.711,0,4.051-2.388,5.127-4.309C7.341,3.671,8.079,2.48,9.466,2.48s2.124,1.191,3.213,3.133c1.076,1.92,2.416,4.309,5.127,4.309s4.051-2.388,5.126-4.309c1.089-1.943,1.826-3.133,3.214-3.133s2.125,1.191,3.214,3.133c1.076,1.92,2.416,4.309,5.129,4.309s4.052-2.388,5.13-4.309c1.088-1.943,1.826-3.133,3.216-3.133s2.125,1.191,3.214,3.133c1.075,1.92,2.416,4.309,5.129,4.309s4.055-2.388,5.131-4.309C57.4,3.671,58.138,2.48,59.526,2.48s2.128,1.191,3.218,3.133c1.076,1.92,2.417,4.309,5.131,4.309A1.186,1.186,0,0,0,69,8.682a1.187,1.187,0,0,0-1.125-1.24c-1.39,0-2.128-1.191-3.218-3.133C63.581,2.388,62.241,0,59.526,0Z" transform="translate(0 21.619)" fill="#fdc9a6"/>
      <path id="Trazado_114079" data-name="Trazado 114079" d="M59.526,0c-2.714,0-4.054,2.39-5.13,4.309-1.09,1.944-1.829,3.135-3.218,3.135S49.051,6.253,47.964,4.31C46.888,2.39,45.548,0,42.835,0s-4.054,2.39-5.13,4.31c-1.089,1.943-1.827,3.133-3.216,3.133S32.364,6.253,31.275,4.31C30.2,2.39,28.86,0,26.147,0S22.094,2.391,21.02,4.31c-1.089,1.943-1.826,3.133-3.213,3.133S15.683,6.253,14.594,4.31C13.517,2.39,12.179,0,9.466,0S5.415,2.39,4.339,4.31C3.25,6.253,2.513,7.443,1.126,7.443A1.187,1.187,0,0,0,0,8.683a1.188,1.188,0,0,0,1.126,1.24c2.711,0,4.051-2.39,5.127-4.31C7.341,3.672,8.079,2.482,9.466,2.482s2.124,1.191,3.213,3.132c1.076,1.92,2.416,4.31,5.127,4.31s4.051-2.39,5.126-4.31c1.089-1.941,1.826-3.132,3.214-3.132s2.125,1.191,3.214,3.132c1.076,1.92,2.416,4.31,5.129,4.31s4.052-2.39,5.13-4.31c1.088-1.941,1.826-3.132,3.216-3.132s2.125,1.191,3.214,3.132c1.075,1.92,2.416,4.31,5.129,4.31s4.055-2.39,5.131-4.31c1.09-1.941,1.829-3.132,3.217-3.132s2.128,1.191,3.218,3.132c1.076,1.92,2.417,4.31,5.131,4.31A1.187,1.187,0,0,0,69,8.683a1.186,1.186,0,0,0-1.125-1.24c-1.39,0-2.128-1.191-3.218-3.133C63.581,2.39,62.241,0,59.526,0Z" transform="translate(0 10.808)" fill="#fdc9a6"/>
      <path id="Trazado_114080" data-name="Trazado 114080" d="M59.526,0c-2.714,0-4.054,2.388-5.13,4.309-1.09,1.943-1.829,3.133-3.218,3.133s-2.127-1.191-3.214-3.133C46.888,2.388,45.548,0,42.835,0s-4.054,2.388-5.13,4.309c-1.089,1.943-1.827,3.133-3.216,3.133s-2.125-1.191-3.214-3.133C30.2,2.388,28.86,0,26.147,0S22.094,2.388,21.02,4.309c-1.089,1.943-1.826,3.133-3.213,3.133s-2.124-1.191-3.213-3.133C13.517,2.388,12.179,0,9.466,0S5.415,2.388,4.339,4.309C3.25,6.251,2.513,7.442,1.126,7.442A1.187,1.187,0,0,0,0,8.682a1.188,1.188,0,0,0,1.126,1.24c2.711,0,4.051-2.39,5.127-4.31C7.341,3.671,8.079,2.48,9.466,2.48s2.124,1.191,3.213,3.132c1.076,1.92,2.416,4.31,5.127,4.31s4.051-2.39,5.126-4.309c1.089-1.943,1.826-3.133,3.214-3.133s2.125,1.191,3.214,3.133c1.076,1.919,2.416,4.309,5.129,4.309s4.052-2.39,5.13-4.309c1.088-1.943,1.826-3.133,3.216-3.133s2.125,1.191,3.214,3.133c1.075,1.919,2.416,4.309,5.129,4.309s4.055-2.39,5.131-4.309C57.4,3.671,58.138,2.48,59.526,2.48s2.128,1.191,3.218,3.133c1.076,1.919,2.417,4.309,5.131,4.309A1.187,1.187,0,0,0,69,8.682a1.186,1.186,0,0,0-1.125-1.24c-1.39,0-2.128-1.191-3.218-3.133C63.581,2.388,62.241,0,59.526,0Z" fill="#fdc9a6"/>
    </g>
  </g>
</svg>
