<svg xmlns="http://www.w3.org/2000/svg" xmlns:xlink="http://www.w3.org/1999/xlink" width="90.283" height="90" viewBox="0 0 90.283 90">
  <defs>
    <clipPath id="clip-path">
      <rect id="Rectángulo_455582" data-name="Rectángulo 455582" width="90.283" height="90" fill="none"/>
    </clipPath>
  </defs>
  <g id="Grupo_1204161" data-name="Grupo 1204161" transform="translate(0 0)">
    <path id="Trazado_1255148" data-name="Trazado 1255148" d="M78.6,51.6v7.969H6.363V51.6H78.6Z" transform="translate(3.778 28.359)" fill="#b8d0f3"/>
    <g id="Grupo_1204160" data-name="Grupo 1204160" transform="translate(0 0)">
      <g id="Grupo_1204159" data-name="Grupo 1204159" clip-path="url(#clip-path)">
        <path id="Trazado_1255149" data-name="Trazado 1255149" d="M72.256,1.3V79.487H29.086V19.331A18.135,18.135,0,0,1,47.3,1.3Z" transform="translate(16.125 0.721)" fill="#b8d0f3"/>
        <path id="Trazado_1255150" data-name="Trazado 1255150" d="M25.8,28.968a6.544,6.544,0,0,0-2.983.777,5.92,5.92,0,0,0-2.826-.777c-4.394,0-7.85,4.352-7.85,9.793s3.455,9.793,7.85,9.793a6.544,6.544,0,0,0,2.983-.777,6.544,6.544,0,0,0,2.983.777c4.4,0,7.848-4.352,7.848-9.793-.157-5.44-3.609-9.793-8.005-9.793m18.681-9.637V79.642H1.313V1.3H26.274a18.134,18.134,0,0,1,18.21,18.031" transform="translate(0.728 0.721)" fill="#fff"/>
        <path id="Trazado_1255151" data-name="Trazado 1255151" d="M22,19.1c4.4,0,7.848,4.352,7.848,9.793S26.391,38.685,22,38.685a6.544,6.544,0,0,1-2.983-.777,6.544,6.544,0,0,1-2.983.777c-4.4,0-7.85-4.352-7.85-9.793S11.634,19.1,16.03,19.1a6.544,6.544,0,0,1,2.983.777A7.1,7.1,0,0,1,22,19.1" transform="translate(4.535 10.589)" fill="#b8d0f3"/>
        <path id="Trazado_1255152" data-name="Trazado 1255152" d="M22.723,41.216a9.948,9.948,0,0,1-2.983-.466,9.224,9.224,0,0,1-2.983.466c-5.338,0-9.891-5.285-9.891-11.658S11.263,17.9,16.758,17.9a9.948,9.948,0,0,1,2.983.466,9.224,9.224,0,0,1,2.983-.466c5.336,0,9.889,5.285,9.889,11.658s-4.4,11.658-9.889,11.658M19.9,36.553a2.009,2.009,0,0,1,.942.155,4.874,4.874,0,0,0,2.041.466c3.3,0,5.964-3.42,5.964-7.772s-2.667-7.772-5.964-7.772a4.874,4.874,0,0,0-2.041.466,1.709,1.709,0,0,1-1.727,0,4.874,4.874,0,0,0-2.041-.466c-3.3,0-5.966,3.42-5.966,7.772s2.669,7.772,5.966,7.772a4.874,4.874,0,0,0,2.041-.466,1.186,1.186,0,0,1,.785-.155" transform="translate(3.807 9.924)" fill="#4e8ae1"/>
        <path id="Trazado_1255153" data-name="Trazado 1255153" d="M15.879,24.493a1.86,1.86,0,0,1-1.884-1.554c-.471-2.332-.157-7.15,4.239-8.7a2.056,2.056,0,0,1,2.512,1.088,2.022,2.022,0,0,1-1.1,2.487c-2.355.933-1.727,4.352-1.727,4.352a2.061,2.061,0,0,1-1.57,2.332Z" transform="translate(7.669 7.838)" fill="#4e8ae1"/>
        <path id="Trazado_1255154" data-name="Trazado 1255154" d="M9.889,82.228H2.041A2.068,2.068,0,0,1,0,80.207V2.021A2.068,2.068,0,0,1,2.041,0H27A19.935,19.935,0,0,1,47.1,19.9a2.041,2.041,0,0,1-4.082,0,16.068,16.068,0,0,0-16.17-16.01H4.08v74.3h5.966a2.068,2.068,0,0,1,2.041,2.021,2.335,2.335,0,0,1-2.2,2.021" transform="translate(0 0)" fill="#4e8ae1"/>
        <path id="Trazado_1255155" data-name="Trazado 1255155" d="M72.984,82.173H67.02a2.021,2.021,0,1,1,0-4.041h3.925V3.831H48.024a16.068,16.068,0,0,0-16.169,16.01V80.152a2.041,2.041,0,0,1-4.082,0V20A19.935,19.935,0,0,1,47.867.1H72.827a2.068,2.068,0,0,1,2.041,2.021V80.307a1.8,1.8,0,0,1-1.884,1.865" transform="translate(15.397 0.056)" fill="#4e8ae1"/>
        <path id="Trazado_1255156" data-name="Trazado 1255156" d="M62.336,19.341H34.864a2.021,2.021,0,1,1,0-4.041H62.336a2.021,2.021,0,1,1,0,4.041" transform="translate(18.197 8.483)" fill="#4e8ae1"/>
        <path id="Trazado_1255157" data-name="Trazado 1255157" d="M62.336,24.341H34.864a2.021,2.021,0,1,1,0-4.041H62.336a2.021,2.021,0,1,1,0,4.041" transform="translate(18.197 11.255)" fill="#4e8ae1"/>
        <path id="Trazado_1255158" data-name="Trazado 1255158" d="M62.336,29.341H34.864a2.021,2.021,0,1,1,0-4.041H62.336a2.021,2.021,0,1,1,0,4.041" transform="translate(18.197 14.027)" fill="#4e8ae1"/>
        <path id="Trazado_1255159" data-name="Trazado 1255159" d="M62.336,34.341H34.864a2.021,2.021,0,1,1,0-4.041H62.336a2.021,2.021,0,1,1,0,4.041" transform="translate(18.197 16.799)" fill="#4e8ae1"/>
        <path id="Trazado_1255160" data-name="Trazado 1255160" d="M62.336,39.341H34.864a2.021,2.021,0,1,1,0-4.041H62.336a2.021,2.021,0,1,1,0,4.041" transform="translate(18.197 19.571)" fill="#4e8ae1"/>
        <path id="Trazado_1255161" data-name="Trazado 1255161" d="M62.336,44.341H34.864a2.021,2.021,0,1,1,0-4.041H62.336a2.021,2.021,0,1,1,0,4.041" transform="translate(18.197 22.343)" fill="#4e8ae1"/>
        <path id="Trazado_1255162" data-name="Trazado 1255162" d="M62.336,49.341H34.864a2.021,2.021,0,1,1,0-4.041H62.336a2.021,2.021,0,1,1,0,4.041" transform="translate(18.197 25.115)" fill="#4e8ae1"/>
        <path id="Trazado_1255163" data-name="Trazado 1255163" d="M34.562,44.341H7.09a2.021,2.021,0,1,1,0-4.041H34.562a2.021,2.021,0,1,1,0,4.041" transform="translate(2.799 22.343)" fill="#4e8ae1"/>
        <path id="Trazado_1255164" data-name="Trazado 1255164" d="M34.562,49.341H7.09a2.021,2.021,0,1,1,0-4.041H34.562a2.021,2.021,0,1,1,0,4.041" transform="translate(2.799 25.115)" fill="#4e8ae1"/>
        <path id="Trazado_1255165" data-name="Trazado 1255165" d="M79.775,62.113H7.09a2.068,2.068,0,0,1-2.041-2.021V52.321A2.068,2.068,0,0,1,7.09,50.3H79.775a2.068,2.068,0,0,1,2.039,2.021v7.772a2.315,2.315,0,0,1-2.039,2.021M9.131,58.227H77.89V54.341H9.131Z" transform="translate(2.799 27.887)" fill="#4e8ae1"/>
      </g>
    </g>
  </g>
</svg>
